<svg width="17" height="20" viewBox="0 0 17 20" fill="none" xmlns="http://www.w3.org/2000/svg">
<path d="M15 13.2206V15C15 17.2091 13.2091 19 11 19H5C2.79086 19 1 17.2091 1 15V5C1 2.79086 2.79086 1 5 1H6.1" stroke="white" stroke-width="2"/>
<path d="M7.37214 11.4202C7.51218 11.5559 7.5447 11.589 7.55904 11.607C7.75374 11.8516 7.66054 12.2025 7.36604 12.3334C7.34435 12.3431 7.29907 12.3581 7.10737 12.4168C6.89993 12.4803 6.84904 12.4947 6.82465 12.4989C6.48956 12.5571 6.18781 12.3003 6.2174 11.982C6.21955 11.9589 6.2299 11.91 6.27738 11.7103C6.32732 11.5004 6.34094 11.4488 6.34973 11.4265C6.47141 11.1187 6.87766 11.011 7.15262 11.2137C7.17249 11.2284 7.21281 11.2657 7.37214 11.4202Z" fill="white" stroke="white"/>
<path d="M9.49278 10.6361L8.07918 9.27077L14.8859 3.07692C15.0901 2.89107 15.4167 2.89593 15.6153 3.08777L16.3097 3.75841C16.5083 3.95025 16.5037 4.25643 16.2995 4.44228L9.49278 10.6361Z" fill="white" stroke="white"/>
</svg>